<?xml version="1.0" encoding="UTF-8"?>
<svg xmlns="http://www.w3.org/2000/svg" version="1.1" viewBox="0 0 2200 2200">
  <!-- Generator: Adobe Illustrator 28.7.7, SVG Export Plug-In . SVG Version: 1.2.0 Build 194)  -->
  <g>
    <g id="objects">
      <g>
        <path d="M1635.675,1601.335c-321.349,409.884-624.172,459.088-901.891,301.183,590.785-466.854,739.411-981.274,739.411-981.274-477.545,609.734-1020.847,997.202-1109.888,1090.095l-99.515-106.45s105.511-39.729,237.147-163.492c-177.24-197.297-311.958-581.803-23.717-949.84,382.796-488.765,1006.616-195.299,1368.537-602.896,0,0,307.214,752.807-210.083,1412.672Z" style="fill: #7dba3c;"/>
        <path d="M1635.678,1601.337c-321.358,409.877-624.179,459.082-901.893,301.179,0,0,673.384-95.46,940.671-740.64,216.503-522.6,171.3-973.214,171.3-973.214,0,0,307.213,752.804-210.078,1412.676Z" style="fill: #6da032;"/>
        <path d="M363.306,2053.466c-.087,0-.175,0-.262-.001-11.574-.072-22.607-4.903-30.511-13.357l-99.516-106.45c-9.633-10.305-13.589-24.704-10.338-38.431,3.244-13.703,13.003-24.833,26.198-29.738,2.468-.964,85.781-34.064,193.585-127.97-38.078-47.615-71.78-101.529-98.585-157.931-37.328-78.543-61.278-160.676-71.186-244.116-11.183-94.189-4.082-188.129,21.107-279.211,28.035-101.371,78.589-199.17,150.257-290.679,50.117-63.991,107.616-119.104,170.898-163.808,56.977-40.249,118.954-72.836,189.475-99.624,128.766-48.912,264.521-69.731,395.806-89.864,232.546-35.662,452.195-69.345,614.022-251.596,9.662-10.882,24.257-16.007,38.6-13.554,14.344,2.452,26.408,12.134,31.906,25.608.828,2.03,20.534,50.672,41.724,133.401,19.396,75.723,43.869,196.094,50.302,339.516,7.243,161.491-9.368,318.782-49.372,467.505-50.078,186.175-137.078,359.162-258.587,514.159h-.001c-80.523,102.71-162.935,186.692-244.943,249.617-80.03,61.405-162.04,104.59-243.751,128.357-79.115,23.011-159.825,28.409-239.884,16.05-75.332-11.631-151.803-39.291-227.288-82.209-12.182-6.926-20.122-19.456-21.184-33.428-1.062-13.972,4.893-27.559,15.886-36.246,131.944-104.265,252.149-219.576,357.276-342.731,84.125-98.551,158.851-202.331,222.102-308.458,5.829-9.78,11.449-19.397,16.874-28.849-109.02,122.677-227.076,244.365-353.045,363.839-174.73,165.72-330.558,295.095-433.674,380.705-58.486,48.556-104.681,86.91-123.477,106.52-7.948,8.293-18.935,12.977-30.413,12.977ZM333.523,1917.793l31.781,33.995c23.897-21.059,56.486-48.116,98.073-82.643,102.263-84.902,256.803-213.207,429.513-377.012,205.561-194.961,389.645-395.775,547.139-596.865,12.439-15.883,34.391-20.716,52.352-11.53,17.96,9.188,26.886,29.818,21.287,49.198-1.579,5.463-39.946,135.962-152.41,325.381-65.664,110.596-143.262,218.678-230.635,321.241-95.46,112.056-202.902,217.779-320.019,314.956,47.879,21.721,95.606,36.325,142.502,43.565,67.815,10.469,136.28,5.867,203.498-13.684,71.627-20.832,144.296-59.288,215.993-114.299,76.404-58.623,153.762-137.606,229.926-234.755,114.478-146.027,196.414-308.889,243.532-484.061,37.753-140.354,53.419-289.012,46.564-441.844-7.648-170.5-41.775-307.663-64.635-382.56-30.509,28.087-63.266,53.047-98.992,75.492-49.435,31.059-103.386,56.496-164.935,77.765-112.374,38.833-233.709,57.44-351.049,75.434-126.954,19.469-258.228,39.601-378.659,85.347-63.808,24.238-119.671,53.571-170.781,89.676-57.38,40.535-107.486,88.6-153.179,146.943-64.778,82.711-110.327,170.586-135.383,261.187-22.261,80.494-28.535,163.536-18.647,246.818,8.825,74.324,30.229,147.632,63.616,217.884,29.583,62.246,68.417,120.969,112.304,169.823,15.299,17.031,14.196,43.163-2.483,58.846-79.557,74.799-150.279,120.378-196.271,145.702Z" style="fill: #4d7f21;"/>
        <path d="M707.418,1058.625c-80.504,104.235-140.073,195.866-202.452,147.698-62.362-48.177-47.679-171.738,32.825-275.973,80.509-104.248,196.336-149.694,258.711-101.513,62.389,48.185-8.576,125.539-89.084,229.788Z" style="fill: #fff;"/>
        <path d="M541.418,1482.665c-33.809,5.913-69.246-35.075-79.153-91.583-9.894-56.504,9.496-107.109,43.305-113.021,33.813-5.926,46.685,39.01,56.592,95.518,9.894,56.504,13.057,103.156-20.743,109.087Z" style="fill: #fff;"/>
      </g>
    </g>
  </g>
</svg>
